<svg xmlns="http://www.w3.org/2000/svg" width="20" height="20" fill="currentColor"><path d="m3.708 4 7.087 7.088a1.98 1.98 0 0 0-1.074.34L2.146 3.853A.5.5 0 0 1 2.5 3l9.987.008a.5.5 0 0 1 .5.5v4.864c-.32.148-.613.352-.862.603l-.14.139L11.981 4H3.708Z"/><path d="m8.244 5.608-.707.707.707.707.707-.707-.707-.707ZM2.234 13.033l3.89-3.889.707.707-3.89 3.89-.707-.708ZM8.953 7.73l.707-.707.707.707-.707.707-.707-.707ZM10.365 6.315l.707-.707.707.707-.707.708-.707-.708ZM2.012 9.012l1.99-1.99.707.707-1.99 1.99-.707-.707ZM6.254 13.254l1.99-1.99.707.707-1.99 1.99-.707-.707ZM8.951 4.901l.707-.707.707.707-.707.707-.707-.707ZM17.196 8.854a.5.5 0 1 0-.707-.708l-1.186 1.186a.595.595 0 0 0-.035.053 2 2 0 0 0-2.436.3l-.6.6a.98.98 0 0 0 0 1.386l1.442 1.439a.98.98 0 0 0 1.387 0l.6-.6a2 2 0 0 0 .3-2.437.389.389 0 0 0 .053-.035l1.182-1.184ZM11.527 12.375a.98.98 0 0 0-1.386 0l-.6.6a2 2 0 0 0-.3 2.437.424.424 0 0 0-.053.035l-1.182 1.185a.5.5 0 0 0 .707.707l1.185-1.186a.499.499 0 0 0 .036-.053 2 2 0 0 0 2.436-.3l.6-.6a.98.98 0 0 0 0-1.387l-1.443-1.438Z"/></svg>