<svg xmlns="http://www.w3.org/2000/svg" width="20" height="20" fill="currentColor"><path d="m14.374 5.168-.883-.884-.884.884.884.883.883-.883ZM16.2 6.974l-.883-.883-.884.883.884.884.884-.884ZM12.424 7.112l-.884-.884-.883.884.883.884.884-.884ZM14.251 8.919l-.883-.884-.884.884.883.884.884-.884Z"/><path d="M3.578 2.309A.5.5 0 0 1 4.04 2h13.944a.5.5 0 0 1 .5.5v13.944a.5.5 0 0 1-.854.354L3.686 2.854a.5.5 0 0 1-.108-.545ZM5.247 3l3.297 3.298L11.842 3H5.247Zm8.332 8.332 3.905-3.904V3h-4.228L9.25 7.005l4.328 4.327Zm.707.707 3.198 3.198V8.842l-3.198 3.197ZM7 8.524l-4 4 .707.708 4-4L7 8.524ZM3.121 16.645l6-6 .707.707-6 6-.707-.707ZM7.243 16.767l4-4 .707.708-4 4-.707-.708Z"/></svg>