<svg xmlns="http://www.w3.org/2000/svg" width="16" height="16" fill="currentColor"><path fill-rule="evenodd" d="M5.543 2.544c1.09-1.89 3.815-1.89 4.905 0l.001.002 4.052 7.087c.079.11.155.222.228.334l.006.01.372.645c1.083 1.878 0 4.251-2.453 4.251H3.336c-2.452 0-3.542-2.362-2.452-4.251l4.659-8.078Zm2.481 9.992.077-.056c.137-.104.31-.26.5-.45.382-.38.794-.864 1.068-1.276.157-.235.497-.894.759-1.584a5.97 5.97 0 0 0 .286-.948c.026-.138.038-.251.037-.338a.592.592 0 0 0-.008-.097l-.002-.011a.363.363 0 0 0-.015-.012l-.012-.008a7.107 7.107 0 0 0-5.371-.03c-.025.01-.05.018-.073.03l-.006.002a.25.25 0 0 0-.001.022v.013a7.082 7.082 0 0 0 1.288 3.235 7.109 7.109 0 0 0 1.473 1.508Zm4.202-5.034a7.99 7.99 0 0 0-1.133-.584v.001a8.03 8.03 0 0 0-5.89-.124c.014-1.392.455-2.613 1.135-3.792.736-1.277 2.578-1.277 3.315 0l2.572 4.5Zm-.582.722a3.47 3.47 0 0 1-.029.17 8.153 8.153 0 0 1-1.182 2.87A9.977 9.977 0 0 1 9.25 12.68a7.34 7.34 0 0 1-.414.386c1.196.668 2.16.926 3.818.926 1.536 0 2.402-1.622 1.658-2.912-.18-.313-.353-.63-.566-.924a7.082 7.082 0 0 0-2.102-1.932ZM4.3 7.371a8.053 8.053 0 0 1-.01-.819L1.68 11.08c-.738 1.279.184 2.875 1.657 2.875H8.55a7.99 7.99 0 0 1-2.742-2.39A7.994 7.994 0 0 1 4.3 7.372Z" clip-rule="evenodd"/></svg>