<svg xmlns="http://www.w3.org/2000/svg" width="20" height="20" fill="currentColor"><path d="M16.084 9.146c.08.138-.09.297-.226.214a11.234 11.234 0 0 0-1.512-.772h-.001l-.001.001a11.286 11.286 0 0 0-8.258-.18.15.15 0 0 1-.203-.141c.026-1.968.657-3.755 1.632-5.445 1.101-1.909 3.853-1.908 4.955 0l3.614 6.323ZM14.007 9.593l-.004-.004a.205.205 0 0 1 .01.01l-.006-.006ZM15.007 10.534c.013-.07.025-.139.035-.207.016-.109.136-.171.23-.115a10.212 10.212 0 0 1 3.011 2.775h.002c.158.219.3.447.438.678l.25.431.124.217c1.108 1.922-.183 4.296-2.478 4.296h-.092c-1.8-.01-3.35-.274-4.857-.998a9.866 9.866 0 0 1-.533-.277.152.152 0 0 1-.022-.247c.18-.155.372-.334.565-.527.582-.582 1.223-1.33 1.666-1.995.78-1.17 1.395-2.643 1.66-4.03ZM4.879 9.184a11.234 11.234 0 0 0 2.111 5.807 11.23 11.23 0 0 0 3.768 3.313c.142.077.089.305-.072.305H3.365c-2.201 0-3.579-2.386-2.477-4.296l3.668-6.36c.08-.14.305-.071.3.09-.011.38-.004.76.023 1.141Z"/></svg>