<svg xmlns="http://www.w3.org/2000/svg" width="24" height="24" fill="currentColor"><path fill-rule="evenodd" d="M8.306 3.82c1.638-2.842 5.736-2.842 7.375 0l.001.002 6.068 10.615c.12.165.233.332.343.502l.01.014.556.966c1.629 2.823 0 6.392-3.687 6.392H5.014c-3.687 0-5.326-3.552-3.687-6.392l6.979-12.1Zm3.73 14.956c.032-.022.067-.047.106-.077.204-.156.463-.388.748-.673.57-.57 1.187-1.293 1.598-1.91.234-.35.742-1.336 1.134-2.368a8.937 8.937 0 0 0 .428-1.42c.039-.205.056-.373.055-.502a.808.808 0 0 0-.013-.153.452.452 0 0 0-.018-.013l-.016-.011a10.63 10.63 0 0 0-8.033-.046l-.023.01a1.644 1.644 0 0 0-.084.035l-.001.005a.26.26 0 0 0-.002.035 10.593 10.593 0 0 0 1.927 4.839 10.626 10.626 0 0 0 2.194 2.249Zm6.25-7.567a11.984 11.984 0 0 0-1.647-.844v.002a12.046 12.046 0 0 0-8.813-.194c.025-2.073.687-3.898 1.698-5.65 1.097-1.903 3.84-1.904 4.938-.002v.001l3.823 6.687Zm-.816 1.152a5.469 5.469 0 0 1-.04.232c-.283 1.482-.94 3.055-1.772 4.304-.474.711-1.156 1.507-1.774 2.125-.206.205-.41.397-.604.563 1.785.993 3.077 1.37 5.69 1.37 2.289 0 3.58-2.412 2.471-4.333-.27-.47-.528-.944-.846-1.383a10.591 10.591 0 0 0-3.125-2.878ZM6.447 11.136a12.08 12.08 0 0 1-.021-1.243l-3.881 6.729c-1.099 1.904.275 4.283 2.47 4.283h7.744a11.984 11.984 0 0 1-4.057-3.555 11.99 11.99 0 0 1-2.255-6.214Z" clip-rule="evenodd"/></svg>