<svg xmlns="http://www.w3.org/2000/svg" width="32" height="32" fill="currentColor"><path fill-rule="evenodd" d="M11.074 5.093c2.185-3.788 7.649-3.788 9.834 0l.002.003L29 19.25c.159.22.311.443.457.669l.756 1.308c2.17 3.764 0 8.522-4.917 8.522H6.686c-4.917 0-7.101-4.736-4.917-8.522l9.305-16.133Zm4.975 19.941a3.77 3.77 0 0 0 .14-.102c.272-.208.618-.517.998-.897.76-.76 1.583-1.724 2.13-2.546.312-.468.99-1.783 1.512-3.159.26-.682.465-1.342.57-1.891.053-.275.076-.499.075-.67-.001-.102-.01-.168-.018-.205a.58.58 0 0 0-.045-.032 14.173 14.173 0 0 0-10.71-.061l-.032.012a2.196 2.196 0 0 0-.112.047l-.001.007-.002.024v.023a14.122 14.122 0 0 0 2.568 6.451 14.172 14.172 0 0 0 2.927 3Zm8.331-10.089a15.984 15.984 0 0 0-2.195-1.125v.002a16.06 16.06 0 0 0-11.75-.258c.033-2.738.916-5.198 2.263-7.534 1.464-2.537 5.12-2.538 6.585-.002v.002l5.097 8.915Zm-1.087 1.537a7.07 7.07 0 0 1-.052.309c-.378 1.976-1.254 4.072-2.364 5.738-.632.949-1.54 2.01-2.366 2.833-.274.274-.547.53-.805.751 2.38 1.324 4.034 1.872 7.59 1.872 3.05 0 4.77-3.261 3.292-5.822-.36-.626-.704-1.259-1.128-1.844h-.001a14.124 14.124 0 0 0-4.166-3.837ZM8.593 14.8a16.105 16.105 0 0 1-.025-1.609l-5.175 8.972c-1.465 2.539.367 5.71 3.293 5.71h10.326a15.978 15.978 0 0 1-5.41-4.74A15.986 15.986 0 0 1 8.594 14.8Z" clip-rule="evenodd"/></svg>