<svg xmlns="http://www.w3.org/2000/svg" width="20" height="20" fill="currentColor"><path fill-rule="evenodd" d="M6.954 3.061c1.351-2.342 4.73-2.342 6.08 0l.001.002 5.202 9.098c.102.142.2.286.294.43l.006.01.475.825c1.345 2.33 0 5.27-3.04 5.27H4.016c-2.934 0-4.391-2.928-3.04-5.27L6.953 3.061Zm3.071 12.91c.046-.027.106-.067.18-.123.18-.139.408-.342.654-.588a11.78 11.78 0 0 0 1.386-1.657c.208-.312.649-1.167.986-2.057.168-.443.303-.875.373-1.239a2.41 2.41 0 0 0 .05-.457.615.615 0 0 0-.028-.207.568.568 0 0 0-.086-.066 9.244 9.244 0 0 0-6.996-.044l-.02.008a.653.653 0 0 0-.116.053.093.093 0 0 0-.032.037.48.48 0 0 0-.013.112 9.211 9.211 0 0 0 1.677 4.215 9.237 9.237 0 0 0 1.986 2.014Zm5.761-6.222a10.12 10.12 0 0 0-1.865-1.023v.002a10.178 10.178 0 0 0-7.635-.094c-.017-1.853.562-3.528 1.473-5.108.994-1.722 3.476-1.722 4.47 0l3.558 6.223Zm-1.212.335c-.011.13-.031.264-.057.398a10.335 10.335 0 0 1-1.498 3.636c-.4.6-.977 1.275-1.503 1.8-.23.23-.456.437-.66.6 1.59.932 3.196 1.248 5.116 1.248 2.07 0 3.235-2.141 2.235-3.875-.234-.406-.458-.816-.733-1.197a9.206 9.206 0 0 0-2.9-2.61Zm-9.193-.82.02.246c.166 1.745.784 3.47 1.885 4.993a10.124 10.124 0 0 0 3.946 3.263H4.016c-1.986 0-3.229-2.152-2.235-3.875L5.398 7.62a10.22 10.22 0 0 0-.017 1.644Z" clip-rule="evenodd"/></svg>