<svg xmlns="http://www.w3.org/2000/svg" width="16" height="16" fill="currentColor"><path d="M11.523 6.767c.445.186.877.408 1.291.666L9.883 2.305C9.043.85 6.944.85 6.105 2.305 5.33 3.648 4.828 5.04 4.81 6.625v.002a9.151 9.151 0 0 1 6.712.141ZM12.119 8.449c.012-.065.023-.13.032-.194a8.07 8.07 0 0 1 2.396 2.202c.124.17.235.349.343.53l.201.348.1.175c.211.365.308.753.309 1.13-.001 1.129-.884 2.146-2.197 2.146l-.929-.002a8.118 8.118 0 0 1-3.422-1.012 11.369 11.369 0 0 0 1.82-2.054 9.288 9.288 0 0 0 1.347-3.27ZM3.783 7.284a9.177 9.177 0 0 1-.011-.934L.796 11.51c-.84 1.457.21 3.276 1.889 3.276h5.939A9.105 9.105 0 0 1 5.5 12.063a9.109 9.109 0 0 1-1.717-4.78Z"/></svg>