<svg xmlns="http://www.w3.org/2000/svg" width="40" height="40" fill="currentColor"><path fill="url(#a)" d="M4 8a4 4 0 0 1 4-4h24a4 4 0 0 1 4 4v24a4 4 0 0 1-4 4H8a4 4 0 0 1-4-4V8Z"/><path fill="url(#b)" fill-opacity=".2" d="M4 8a4 4 0 0 1 4-4h24a4 4 0 0 1 4 4v24a4 4 0 0 1-4 4H8a4 4 0 0 1-4-4V8Z"/><path fill="url(#c)" fill-rule="evenodd" d="M32 5H8a3 3 0 0 0-3 3v24a3 3 0 0 0 3 3h24a3 3 0 0 0 3-3V8a3 3 0 0 0-3-3ZM8 4a4 4 0 0 0-4 4v24a4 4 0 0 0 4 4h24a4 4 0 0 0 4-4V8a4 4 0 0 0-4-4H8Z" clip-rule="evenodd"/><path fill="url(#d)" d="M14.5 11a2.5 2.5 0 0 0-2.5 2.5V18a1.5 1.5 0 0 1-1.5 1.5.5.5 0 0 0 0 1A1.5 1.5 0 0 1 12 22v4.5a2.5 2.5 0 0 0 2.5 2.5.5.5 0 0 0 0-1 1.5 1.5 0 0 1-1.5-1.5V22c0-.818-.393-1.544-1-2 .607-.456 1-1.182 1-2v-4.5a1.5 1.5 0 0 1 1.5-1.5.5.5 0 0 0 0-1Z"/><path fill="url(#e)" d="M28 13.5a2.5 2.5 0 0 0-2.5-2.5.5.5 0 0 0 0 1 1.5 1.5 0 0 1 1.5 1.5V18c0 .818.393 1.544 1 2-.607.456-1 1.182-1 2v4.5a1.5 1.5 0 0 1-1.5 1.5.5.5 0 0 0 0 1 2.5 2.5 0 0 0 2.5-2.5V22a1.5 1.5 0 0 1 1.5-1.5.5.5 0 0 0 0-1A1.5 1.5 0 0 1 28 18v-4.5Z"/><path fill="url(#f)" d="M23.807 15.105a.5.5 0 0 1 .088.702L20.633 20l3.262 4.193a.5.5 0 0 1-.79.614L20 20.814l-3.105 3.993a.5.5 0 0 1-.79-.614L19.367 20l-3.262-4.193a.5.5 0 0 1 .79-.614L20 19.185l3.105-3.992a.5.5 0 0 1 .702-.088Z"/><defs><linearGradient id="a" x1="12.889" x2="16.937" y1="4" y2="36.383" gradientUnits="userSpaceOnUse"><stop stop-color="#fff"/><stop offset="1" stop-color="#EBEBEB"/></linearGradient><linearGradient id="c" x1="14.333" x2="18.642" y1="4" y2="36.314" gradientUnits="userSpaceOnUse"><stop stop-color="#BBB"/><stop offset="1" stop-color="#888"/></linearGradient><linearGradient id="d" x1="10" x2="27.901" y1="11" y2="30.89" gradientUnits="userSpaceOnUse"><stop stop-color="#4BA446"/><stop offset="1" stop-color="#3F7D35"/></linearGradient><linearGradient id="e" x1="10" x2="27.901" y1="11" y2="30.89" gradientUnits="userSpaceOnUse"><stop stop-color="#4BA446"/><stop offset="1" stop-color="#3F7D35"/></linearGradient><linearGradient id="f" x1="10" x2="27.901" y1="11" y2="30.89" gradientUnits="userSpaceOnUse"><stop stop-color="#4BA446"/><stop offset="1" stop-color="#3F7D35"/></linearGradient><radialGradient id="b" cx="0" cy="0" r="1" gradientTransform="rotate(56.31 -4.411 19.454) scale(30.4469 26.3483)" gradientUnits="userSpaceOnUse"><stop offset=".177" stop-color="#fff"/><stop offset="1" stop-color="#B8B8B8"/></radialGradient></defs></svg>