<svg xmlns="http://www.w3.org/2000/svg" width="20" height="20" fill="currentColor"><path fill="url(#a)" d="M2 4.5A2.5 2.5 0 0 1 4.5 2h11A2.5 2.5 0 0 1 18 4.5v11a2.5 2.5 0 0 1-2.5 2.5h-11A2.5 2.5 0 0 1 2 15.5v-11Z"/><path fill="url(#b)" fill-opacity=".2" d="M2 4.5A2.5 2.5 0 0 1 4.5 2h11A2.5 2.5 0 0 1 18 4.5v11a2.5 2.5 0 0 1-2.5 2.5h-11A2.5 2.5 0 0 1 2 15.5v-11Z"/><path fill="url(#c)" fill-rule="evenodd" d="M15.5 3h-11A1.5 1.5 0 0 0 3 4.5v11A1.5 1.5 0 0 0 4.5 17h11a1.5 1.5 0 0 0 1.5-1.5v-11A1.5 1.5 0 0 0 15.5 3Zm-11-1A2.5 2.5 0 0 0 2 4.5v11A2.5 2.5 0 0 0 4.5 18h11a2.5 2.5 0 0 0 2.5-2.5v-11A2.5 2.5 0 0 0 15.5 2h-11Z" clip-rule="evenodd"/><path fill="url(#d)" d="M6.25 6.505a1.5 1.5 0 0 1 1.5-1.5.5.5 0 0 1 0 1 .5.5 0 0 0-.5.5V8c0 .21-.02.708-.22 1.21a2.22 2.22 0 0 1-.524.792c.249.237.416.52.525.793.2.502.22 1 .22 1.21V13.5a.5.5 0 0 0 .5.5.5.5 0 0 1 0 1 1.5 1.5 0 0 1-1.5-1.5v-1.495c0-.162-.018-.511-.15-.84-.124-.313-.336-.574-.727-.676A.5.5 0 0 1 5 10.002a.5.5 0 0 1 .374-.486c.391-.102.603-.363.728-.677.13-.328.148-.677.148-.839V6.505Z"/><path fill="url(#e)" d="M13.75 6.505a1.5 1.5 0 0 0-1.5-1.5.5.5 0 1 0 0 1 .5.5 0 0 1 .5.5V8c0 .21.02.708.22 1.21.108.272.274.554.522.79a2.221 2.221 0 0 0-.523.79c-.2.502-.22 1-.22 1.21v1.495a.5.5 0 0 1-.5.5.5.5 0 1 0 0 1 1.5 1.5 0 0 0 1.5-1.5V12c0-.162.018-.511.15-.84.124-.311.333-.57.72-.674a.499.499 0 0 0 .349-.662.497.497 0 0 0-.35-.31c-.386-.104-.595-.363-.72-.675A2.376 2.376 0 0 1 13.75 8V6.505Z"/><path fill="url(#f)" d="M11.675 11.735a.5.5 0 0 1-.848.53l-.826-1.322-.827 1.322a.5.5 0 1 1-.848-.53L9.41 10 8.326 8.266a.5.5 0 1 1 .848-.53l.827 1.32.826-1.32a.5.5 0 1 1 .848.53L10.59 10l1.085 1.735Z"/><defs><linearGradient id="a" x1="6.444" x2="8.468" y1="2" y2="18.192" gradientUnits="userSpaceOnUse"><stop stop-color="#fff"/><stop offset="1" stop-color="#EBEBEB"/></linearGradient><linearGradient id="c" x1="7.167" x2="9.321" y1="2" y2="18.157" gradientUnits="userSpaceOnUse"><stop stop-color="#BBB"/><stop offset="1" stop-color="#888"/></linearGradient><linearGradient id="d" x1="5" x2="14.995" y1="5.005" y2="15.005" gradientUnits="userSpaceOnUse"><stop stop-color="#4BA446"/><stop offset="1" stop-color="#3F7D35"/></linearGradient><linearGradient id="e" x1="5" x2="14.995" y1="5.005" y2="15.005" gradientUnits="userSpaceOnUse"><stop stop-color="#4BA446"/><stop offset="1" stop-color="#3F7D35"/></linearGradient><linearGradient id="f" x1="5" x2="14.995" y1="5.005" y2="15.005" gradientUnits="userSpaceOnUse"><stop stop-color="#4BA446"/><stop offset="1" stop-color="#3F7D35"/></linearGradient><radialGradient id="b" cx="0" cy="0" r="1" gradientTransform="rotate(56.31 -2.206 9.727) scale(15.2234 13.1741)" gradientUnits="userSpaceOnUse"><stop offset=".177" stop-color="#fff"/><stop offset="1" stop-color="#B8B8B8"/></radialGradient></defs></svg>