<svg xmlns="http://www.w3.org/2000/svg" width="24" height="24" fill="currentColor"><path fill="url(#a)" d="M2 5a3 3 0 0 1 3-3h14a3 3 0 0 1 3 3v14a3 3 0 0 1-3 3H5a3 3 0 0 1-3-3V5Z"/><path fill="url(#b)" fill-opacity=".2" d="M2 5a3 3 0 0 1 3-3h14a3 3 0 0 1 3 3v14a3 3 0 0 1-3 3H5a3 3 0 0 1-3-3V5Z"/><path fill="url(#c)" fill-rule="evenodd" d="M19 3H5a2 2 0 0 0-2 2v14a2 2 0 0 0 2 2h14a2 2 0 0 0 2-2V5a2 2 0 0 0-2-2ZM5 2a3 3 0 0 0-3 3v14a3 3 0 0 0 3 3h14a3 3 0 0 0 3-3V5a3 3 0 0 0-3-3H5Z" clip-rule="evenodd"/><path fill="url(#d)" d="M7 8a2 2 0 0 1 2-2 .5.5 0 0 1 0 1 1 1 0 0 0-1 1v2.063c0 .447 0 .908-.16 1.311A1.688 1.688 0 0 1 7.4 12c.197.18.342.384.44.627.16.403.16.865.16 1.314V16a1 1 0 0 0 1 1 .5.5 0 0 1 0 1 2 2 0 0 1-2-2v-2c0-.533-.008-.798-.09-1.002-.062-.156-.194-.331-.634-.55a.5.5 0 0 1 0-.895c.44-.22.572-.395.635-.55.081-.204.089-.468.089-.998V8Z"/><path fill="url(#e)" d="M17 8a2 2 0 0 0-2-2 .5.5 0 0 0 0 1 1 1 0 0 1 1 1v2.063c0 .447 0 .908.16 1.311.098.242.244.447.44.626-.197.18-.342.384-.44.627-.16.403-.16.865-.16 1.314V16a1 1 0 0 1-1 1 .5.5 0 0 0 0 1 2 2 0 0 0 2-2v-2c0-.533.008-.798.09-1.002.062-.156.194-.331.634-.55a.5.5 0 0 0 0-.895c-.44-.22-.572-.395-.635-.55-.081-.204-.089-.468-.089-.998V8Z"/><path fill="url(#f)" d="M13.756 14.93a.5.5 0 0 0 .171-.686l-1.345-2.243 1.346-2.243a.5.5 0 0 0-.858-.514L12 11.03l-1.072-1.786a.5.5 0 0 0-.858.514l1.346 2.243-1.345 2.243a.5.5 0 1 0 .857.514L12 12.973l1.071 1.785a.5.5 0 0 0 .686.172Z"/><defs><linearGradient id="a" x1="7.556" x2="10.085" y1="2" y2="22.239" gradientUnits="userSpaceOnUse"><stop stop-color="#fff"/><stop offset="1" stop-color="#EBEBEB"/></linearGradient><linearGradient id="c" x1="8.458" x2="11.151" y1="2" y2="22.197" gradientUnits="userSpaceOnUse"><stop stop-color="#BBB"/><stop offset="1" stop-color="#888"/></linearGradient><linearGradient id="d" x1="6" x2="18" y1="6" y2="18" gradientUnits="userSpaceOnUse"><stop stop-color="#4BA446"/><stop offset="1" stop-color="#3F7D35"/></linearGradient><linearGradient id="e" x1="6" x2="18" y1="6" y2="18" gradientUnits="userSpaceOnUse"><stop stop-color="#4BA446"/><stop offset="1" stop-color="#3F7D35"/></linearGradient><linearGradient id="f" x1="6" x2="18" y1="6" y2="18" gradientUnits="userSpaceOnUse"><stop stop-color="#4BA446"/><stop offset="1" stop-color="#3F7D35"/></linearGradient><radialGradient id="b" cx="0" cy="0" r="1" gradientTransform="rotate(56.31 -2.54 11.442) scale(19.0293 16.4677)" gradientUnits="userSpaceOnUse"><stop offset=".177" stop-color="#fff"/><stop offset="1" stop-color="#B8B8B8"/></radialGradient></defs></svg>