<svg xmlns="http://www.w3.org/2000/svg" width="32" height="32" fill="currentColor"><path fill="url(#a)" d="M3 6.5A3.5 3.5 0 0 1 6.5 3h19A3.5 3.5 0 0 1 29 6.5v19a3.5 3.5 0 0 1-3.5 3.5h-19A3.5 3.5 0 0 1 3 25.5v-19Z"/><path fill="url(#b)" fill-opacity=".2" d="M3 6.5A3.5 3.5 0 0 1 6.5 3h19A3.5 3.5 0 0 1 29 6.5v19a3.5 3.5 0 0 1-3.5 3.5h-19A3.5 3.5 0 0 1 3 25.5v-19Z"/><path fill="url(#c)" fill-rule="evenodd" d="M25.5 4h-19A2.5 2.5 0 0 0 4 6.5v19A2.5 2.5 0 0 0 6.5 28h19a2.5 2.5 0 0 0 2.5-2.5v-19A2.5 2.5 0 0 0 25.5 4Zm-19-1A3.5 3.5 0 0 0 3 6.5v19A3.5 3.5 0 0 0 6.5 29h19a3.5 3.5 0 0 0 3.5-3.5v-19A3.5 3.5 0 0 0 25.5 3h-19Z" clip-rule="evenodd"/><path fill="url(#d)" d="M11.5 9A2.5 2.5 0 0 0 9 11.5v2.882c0 .493-.277.944-.715 1.167a.5.5 0 0 0 0 .902c.438.223.715.674.715 1.167V20.5a2.5 2.5 0 0 0 2.5 2.5.5.5 0 0 0 0-1 1.5 1.5 0 0 1-1.5-1.5v-2.882c0-.615-.244-1.193-.662-1.618A2.309 2.309 0 0 0 10 14.382V11.5a1.5 1.5 0 0 1 1.5-1.5.5.5 0 0 0 0-1Zm9 0a2.5 2.5 0 0 1 2.5 2.5v2.882c0 .493.277.944.715 1.167a.5.5 0 0 1 0 .902A1.31 1.31 0 0 0 23 17.618V20.5a2.5 2.5 0 0 1-2.5 2.5.5.5 0 0 1 0-1 1.5 1.5 0 0 0 1.5-1.5v-2.882c0-.615.244-1.193.662-1.618A2.309 2.309 0 0 1 22 14.382V11.5a1.5 1.5 0 0 0-1.5-1.5.5.5 0 0 1 0-1Zm-6.593 3.21a.5.5 0 0 0-.814.58L15.386 16l-2.293 3.21a.5.5 0 0 0 .814.58L16 16.86l2.093 2.93a.5.5 0 0 0 .814-.58L16.614 16l2.293-3.21a.5.5 0 0 0-.814-.58L16 15.14l-2.093-2.93Z"/><defs><linearGradient id="a" x1="10.222" x2="13.511" y1="3" y2="29.311" gradientUnits="userSpaceOnUse"><stop stop-color="#fff"/><stop offset="1" stop-color="#EBEBEB"/></linearGradient><linearGradient id="c" x1="11.396" x2="14.897" y1="3" y2="29.256" gradientUnits="userSpaceOnUse"><stop stop-color="#BBB"/><stop offset="1" stop-color="#888"/></linearGradient><linearGradient id="d" x1="8" x2="21.876" y1="9" y2="24.858" gradientUnits="userSpaceOnUse"><stop stop-color="#4BA446"/><stop offset="1" stop-color="#3F7D35"/></linearGradient><radialGradient id="b" cx="0" cy="0" r="1" gradientTransform="rotate(56.31 -3.476 15.448) scale(24.7381 21.408)" gradientUnits="userSpaceOnUse"><stop offset=".177" stop-color="#fff"/><stop offset="1" stop-color="#B8B8B8"/></radialGradient></defs></svg>