<svg xmlns="http://www.w3.org/2000/svg" width="48" height="48" fill="currentColor"><path fill="url(#a)" d="M5 10a5 5 0 0 1 5-5h28a5 5 0 0 1 5 5v28a5 5 0 0 1-5 5H10a5 5 0 0 1-5-5V10Z"/><path fill="url(#b)" fill-opacity=".2" d="M5 10a5 5 0 0 1 5-5h28a5 5 0 0 1 5 5v28a5 5 0 0 1-5 5H10a5 5 0 0 1-5-5V10Z"/><path fill="url(#c)" fill-rule="evenodd" d="M38 6H10a4 4 0 0 0-4 4v28a4 4 0 0 0 4 4h28a4 4 0 0 0 4-4V10a4 4 0 0 0-4-4ZM10 5a5 5 0 0 0-5 5v28a5 5 0 0 0 5 5h28a5 5 0 0 0 5-5V10a5 5 0 0 0-5-5H10Z" clip-rule="evenodd"/><path fill="url(#d)" d="M14.47 15.97A2.97 2.97 0 0 1 17.442 13a.5.5 0 0 1 0 1 1.97 1.97 0 0 0-1.97 1.97v5.56c0 1.03-.525 1.937-1.32 2.47a2.968 2.968 0 0 1 1.32 2.47v5.558a1.97 1.97 0 0 0 1.97 1.97.5.5 0 0 1 0 1 2.97 2.97 0 0 1-2.97-2.97V26.47a1.97 1.97 0 0 0-1.97-1.97.5.5 0 0 1 0-1 1.97 1.97 0 0 0 1.97-1.97v-5.56Z"/><path fill="url(#e)" d="M29.398 17.808a.506.506 0 0 0-.088-.705.494.494 0 0 0-.698.087L24 23.18l-4.612-5.99a.494.494 0 0 0-.698-.087.506.506 0 0 0-.088.705L23.369 24 18.6 30.19a.506.506 0 0 0 .089.705c.217.17.53.131.698-.087L24 24.819l4.612 5.99a.494.494 0 0 0 .698.087.506.506 0 0 0 .089-.705L24.63 24l4.767-6.192Z"/><path fill="url(#f)" d="M33.53 15.97A2.97 2.97 0 0 0 30.558 13a.5.5 0 0 0 0 1 1.97 1.97 0 0 1 1.97 1.97v5.56c0 1.03.524 1.937 1.32 2.47a2.967 2.967 0 0 0-1.32 2.47v5.558a1.97 1.97 0 0 1-1.97 1.97.5.5 0 0 0 0 1 2.97 2.97 0 0 0 2.97-2.97V26.47a1.97 1.97 0 0 1 1.97-1.97.5.5 0 0 0 0-1 1.97 1.97 0 0 1-1.97-1.97v-5.56Z"/><defs><linearGradient id="a" x1="15.556" x2="20.362" y1="5" y2="43.455" gradientUnits="userSpaceOnUse"><stop stop-color="#fff"/><stop offset="1" stop-color="#EBEBEB"/></linearGradient><linearGradient id="c" x1="17.271" x2="22.387" y1="5" y2="43.373" gradientUnits="userSpaceOnUse"><stop stop-color="#BBB"/><stop offset="1" stop-color="#888"/></linearGradient><linearGradient id="d" x1="12" x2="33.915" y1="13" y2="36.909" gradientUnits="userSpaceOnUse"><stop stop-color="#4BA446"/><stop offset="1" stop-color="#3F7D35"/></linearGradient><linearGradient id="e" x1="12" x2="33.915" y1="13" y2="36.909" gradientUnits="userSpaceOnUse"><stop stop-color="#4BA446"/><stop offset="1" stop-color="#3F7D35"/></linearGradient><linearGradient id="f" x1="12" x2="33.915" y1="13" y2="36.909" gradientUnits="userSpaceOnUse"><stop stop-color="#4BA446"/><stop offset="1" stop-color="#3F7D35"/></linearGradient><radialGradient id="b" cx="0" cy="0" r="1" gradientTransform="rotate(56.31 -5.347 23.46) scale(36.1557 31.2886)" gradientUnits="userSpaceOnUse"><stop offset=".177" stop-color="#fff"/><stop offset="1" stop-color="#B8B8B8"/></radialGradient></defs></svg>